{"glyphs":{"0":{"ha":853,"x_min":0,"x_max":0,"o":"m 357 972 l 79 694 l 79 0 l 496 0 l 774 278 l 774 972 z m 635 278 b 594 178 635 239 621 205 b 496 139 566 152 533 139 l 218 139 l 218 694 b 257 792 218 732 231 765 b 357 833 285 820 318 833 l 635 833 z "},"1":{"ha":564,"x_min":0,"x_max":0,"o":"m 206 972 l 42 972 l 42 833 l 206 833 b 306 794 245 833 278 820 b 345 694 332 767 345 733 l 345 0 l 484 0 l 484 694 z "},"2":{"ha":843,"x_min":0,"x_max":0,"o":"m 768 417 l 768 694 l 490 972 l 74 972 l 74 833 l 490 833 b 590 794 529 833 563 820 b 629 694 616 767 629 733 l 629 556 l 74 556 l 74 278 l 351 0 l 768 0 l 768 139 l 351 139 b 252 178 312 139 279 152 b 212 278 225 205 212 239 l 212 417 z "},"3":{"ha":831,"x_min":0,"x_max":0,"o":"m 479 972 l 63 972 l 63 833 l 479 833 b 579 792 518 833 552 820 b 618 694 605 765 618 732 l 618 556 l 315 556 l 315 417 l 618 417 l 618 278 b 579 178 618 239 605 205 b 479 139 552 152 518 139 l 63 139 l 63 0 l 479 0 l 757 278 l 757 694 z "},"4":{"ha":838,"x_min":0,"x_max":0,"o":"m 615 972 l 615 556 l 337 556 b 238 595 298 556 265 569 b 199 694 212 622 199 655 l 199 972 l 60 972 l 60 694 l 337 417 l 615 417 l 615 0 l 754 0 l 754 972 z "},"5":{"ha":843,"x_min":0,"x_max":0,"o":"m 214 556 l 214 694 l 363 833 l 769 833 l 769 972 l 353 972 l 75 694 l 75 417 l 631 417 l 631 278 b 592 178 631 239 618 205 b 492 139 564 152 531 139 l 75 139 l 75 0 l 492 0 l 769 278 l 769 556 l 214 556 z "},"6":{"ha":846,"x_min":0,"x_max":0,"o":"m 258 792 b 356 833 285 820 318 833 l 772 833 l 772 972 l 356 972 l 78 694 l 78 417 l 217 417 l 78 278 l 78 0 l 494 0 l 772 278 l 772 556 l 217 556 l 217 694 b 258 792 217 732 230 765 z m 258 375 b 355 417 285 403 318 417 l 633 417 l 633 278 b 594 178 633 239 620 205 b 494 139 567 152 533 139 l 217 139 l 217 278 b 258 375 217 315 230 348 z "},"7":{"ha":813,"x_min":0,"x_max":0,"o":"m 67 972 l 67 833 l 622 833 b 344 556 622 680 498 556 l 67 139 l 67 0 l 206 0 l 206 139 b 483 417 206 292 330 417 l 761 833 l 761 972 z "},"8":{"ha":850,"x_min":0,"x_max":0,"o":"m 772 972 l 356 972 l 78 694 l 78 417 l 217 417 l 78 278 l 78 0 l 494 0 l 772 278 l 772 556 l 633 556 l 772 694 z m 633 417 l 633 278 b 592 180 633 240 620 208 b 494 139 565 153 532 139 l 217 139 l 217 278 b 256 378 217 317 230 350 b 355 417 283 404 316 417 z m 633 694 b 592 597 633 657 620 624 b 495 556 565 569 532 556 l 217 556 l 217 694 b 256 794 217 733 230 767 b 356 833 283 820 317 833 l 633 833 l 633 694 z "},"9":{"ha":846,"x_min":0,"x_max":0,"o":"m 768 972 l 351 972 l 74 694 l 74 417 l 629 417 l 629 278 b 588 180 629 240 615 208 b 490 139 560 153 528 139 l 74 139 l 74 0 l 490 0 l 768 278 l 768 556 l 629 556 l 768 694 z m 629 694 b 588 597 629 657 615 624 b 490 556 561 569 528 556 l 213 556 l 213 694 b 252 794 213 733 226 767 b 351 833 279 820 312 833 l 629 833 l 629 694 z "},"\u0000":{"ha":0,"x_min":0,"x_max":0,"o":""},"\n":{"ha":0,"x_min":0,"x_max":0,"o":""},"\r":{"ha":0,"x_min":0,"x_max":0,"o":""}," ":{"ha":424,"x_min":0,"x_max":0,"o":""},"!":{"ha":300,"x_min":0,"x_max":0,"o":"m 219 0 l 219 139 l 81 139 l 81 0 z m 219 278 l 219 972 l 81 972 l 81 278 z "},"\"":{"ha":456,"x_min":0,"x_max":0,"o":"m 60 708 l 198 834 l 198 972 l 60 972 z m 260 972 l 260 708 l 398 834 l 398 972 z "},"#":{"ha":1031,"x_min":0,"x_max":0,"o":"m 959 556 l 959 694 l 836 694 l 896 972 l 758 972 l 698 694 l 422 694 l 482 972 l 344 972 l 284 694 l 71 694 l 71 556 l 254 556 l 222 407 l 71 407 l 71 269 l 192 269 l 133 0 l 272 0 l 330 269 l 606 269 l 548 0 l 686 0 l 744 269 l 959 269 l 959 407 l 774 407 l 807 556 z m 636 407 l 360 407 l 392 556 l 668 556 z "},"$":{"ha":844,"x_min":0,"x_max":0,"o":"m 492 556 l 492 833 l 769 833 l 769 972 l 492 972 l 492 1105 l 353 1105 l 353 972 l 75 694 l 75 417 l 353 417 l 353 139 l 75 139 l 75 0 l 353 0 l 353 -132 l 492 -132 l 492 0 l 769 278 l 769 556 z m 353 556 l 214 556 l 214 694 b 253 794 214 733 227 767 b 353 833 280 820 314 833 z m 631 278 b 592 178 631 239 618 205 b 492 139 564 152 531 139 l 492 417 l 631 417 z "},"%":{"ha":1156,"x_min":0,"x_max":0,"o":"m 907 972 l 67 0 l 248 0 l 1088 972 z m 796 389 l 602 195 l 602 0 l 894 0 l 1088 195 l 1088 389 z m 991 195 b 962 126 991 168 981 146 b 894 97 943 107 920 97 l 699 97 l 699 195 b 726 265 699 222 708 245 b 796 292 746 283 769 292 l 991 292 l 991 195 z m 261 583 l 359 583 l 553 778 l 553 972 l 261 972 l 67 777 l 67 583 l 261 583 z m 164 777 b 193 846 164 804 174 827 b 261 875 212 865 235 875 l 456 875 l 456 778 b 429 708 456 750 447 727 b 359 680 409 689 386 680 l 164 680 l 164 778 z "},"&":{"ha":1004,"x_min":0,"x_max":0,"o":"m 771 278 l 771 444 l 901 557 l 879 694 l 720 556 l 632 556 l 771 694 l 771 972 l 354 972 l 76 694 l 76 417 l 215 417 l 76 278 l 76 139 b 215 0 76 62 139 0 l 493 0 l 685 192 l 806 0 l 945 0 l 771 278 z m 215 556 l 215 694 b 254 794 215 733 228 767 b 354 833 282 820 315 833 l 632 833 l 632 694 b 591 597 632 657 618 624 b 493 556 563 569 531 556 l 215 556 z m 632 278 b 591 180 632 240 618 208 b 493 139 563 153 531 139 l 215 139 l 215 278 b 254 378 215 317 228 350 b 354 417 282 404 315 417 l 632 417 l 632 278 z "},"'":{"ha":256,"x_min":0,"x_max":0,"o":"m 60 972 l 60 708 l 198 834 l 198 972 z "},"(":{"ha":400,"x_min":0,"x_max":0,"o":"m 270 833 l 331 833 l 331 972 l 221 972 b 82 833 144 972 82 910 l 82 139 b 221 0 82 62 144 0 l 331 0 l 331 139 l 270 139 b 221 188 243 139 221 161 l 221 784 b 270 833 221 811 243 833 z "},")":{"ha":400,"x_min":0,"x_max":0,"o":"m 179 972 l 69 972 l 69 833 l 130 833 b 179 784 157 833 179 811 l 179 188 b 130 139 179 161 157 139 l 69 139 l 69 0 l 179 0 b 318 139 256 0 318 62 l 318 833 b 179 972 318 910 256 972 z "},"*":{"ha":603,"x_min":0,"x_max":0,"o":"m 540 788 l 474 910 l 371 855 l 371 972 l 232 972 l 232 855 l 128 910 l 63 788 l 154 739 l 63 689 l 128 567 l 232 623 l 232 505 l 371 505 l 371 623 l 474 567 l 540 689 l 448 739 z "},"+":{"ha":808,"x_min":0,"x_max":0,"o":"m 474 417 l 474 694 l 335 694 l 335 417 l 57 417 l 57 278 l 335 278 l 335 0 l 474 0 l 474 278 l 751 278 l 751 417 z "},",":{"ha":242,"x_min":0,"x_max":0,"o":"m 51 139 l 51 -125 l 189 1 l 189 139 z "},"-":{"ha":517,"x_min":0,"x_max":0,"o":"m 467 278 l 467 417 l 50 417 l 50 278 z "},".":{"ha":239,"x_min":0,"x_max":0,"o":"m 188 1 l 188 139 l 50 139 l 50 1 z "},"/":{"ha":467,"x_min":0,"x_max":0,"o":"m 269 972 l 58 0 l 197 0 l 407 972 z "},":":{"ha":258,"x_min":0,"x_max":0,"o":"m 198 1 l 198 139 l 60 139 l 60 1 z m 198 348 l 198 486 l 60 486 l 60 348 z "},";":{"ha":261,"x_min":0,"x_max":0,"o":"m 199 348 l 199 486 l 61 486 l 61 348 z m 61 -125 l 199 1 l 199 139 l 61 139 z "},"<":{"ha":824,"x_min":0,"x_max":0,"o":"m 761 515 l 715 646 l 60 415 l 60 279 l 715 49 l 761 180 l 285 347 z "},"=":{"ha":817,"x_min":0,"x_max":0,"o":"m 756 444 l 756 583 l 61 583 l 61 444 z m 756 97 l 756 236 l 61 236 l 61 97 z "},">":{"ha":824,"x_min":0,"x_max":0,"o":"m 109 646 l 63 515 l 539 347 l 63 180 l 109 49 l 764 279 l 764 415 z "},"?":{"ha":839,"x_min":0,"x_max":0,"o":"m 214 1 l 214 139 l 76 139 l 76 1 z m 493 972 l 76 972 l 76 833 l 483 833 l 632 694 l 632 556 l 76 556 l 76 278 l 215 278 l 215 417 l 771 417 l 771 694 z "},"@":{"ha":1138,"x_min":0,"x_max":0,"o":"m 83 972 l 83 0 l 1056 0 l 1056 113 l 197 113 l 197 859 l 942 859 l 942 338 l 847 338 l 847 783 l 514 783 l 292 561 l 292 227 l 625 227 l 736 338 l 736 227 l 1056 227 l 1056 972 z m 736 450 b 703 370 736 418 725 392 b 625 338 681 349 655 338 l 403 338 l 403 561 b 434 639 403 591 413 617 b 514 672 456 661 483 672 l 736 672 z "},"A":{"ha":844,"x_min":0,"x_max":0,"o":"m 344 972 l 67 694 l 67 0 l 206 0 l 206 278 l 483 278 l 622 417 l 622 0 l 761 0 l 761 972 z m 622 556 b 581 456 622 516 608 483 b 483 417 553 430 521 417 l 206 417 l 206 694 b 245 792 206 732 219 765 b 344 833 272 819 305 833 l 622 833 l 622 556 z "},"B":{"ha":840,"x_min":0,"x_max":0,"o":"m 778 972 l 361 972 l 222 833 l 222 972 l 83 972 l 83 0 l 222 0 l 222 139 l 361 0 l 778 0 l 778 278 l 569 486 l 778 694 z m 598 375 b 639 278 625 348 639 315 l 639 139 l 361 139 b 261 178 322 139 289 152 b 222 278 235 205 222 239 l 222 417 l 500 417 b 598 375 538 417 570 403 z m 639 694 b 598 597 639 657 625 624 b 500 556 570 569 538 556 l 222 556 l 222 694 b 261 794 222 733 235 767 b 361 833 289 820 322 833 l 639 833 l 639 694 z "},"C":{"ha":771,"x_min":0,"x_max":0,"o":"m 227 792 b 326 833 254 820 287 833 l 743 833 l 743 972 l 326 972 l 49 694 l 49 278 l 326 0 l 743 0 l 743 139 l 326 139 b 227 178 287 139 254 152 b 187 278 200 205 187 239 l 187 694 b 227 792 187 732 200 765 z "},"D":{"ha":826,"x_min":0,"x_max":0,"o":"m 482 972 l 65 972 l 65 278 l 343 0 l 760 0 l 760 694 z m 621 139 l 343 139 b 245 178 305 139 273 152 b 204 278 218 205 204 239 l 204 833 l 482 833 b 582 792 521 833 554 820 b 621 694 608 765 621 732 l 621 139 z "},"E":{"ha":771,"x_min":0,"x_max":0,"o":"m 227 792 b 326 833 254 820 287 833 l 743 833 l 743 972 l 326 972 l 49 694 l 49 278 l 326 0 l 743 0 l 743 139 l 326 139 b 227 178 287 139 254 152 b 187 278 200 205 187 239 l 187 417 l 491 417 l 491 556 l 187 556 l 187 694 b 227 792 187 732 200 765 z "},"F":{"ha":767,"x_min":0,"x_max":0,"o":"m 245 792 b 344 833 272 820 305 833 l 761 833 l 761 972 l 344 972 l 67 694 l 67 0 l 206 0 l 206 417 l 509 417 l 509 556 l 206 556 l 206 694 b 245 792 206 732 219 765 z "},"G":{"ha":794,"x_min":0,"x_max":0,"o":"m 227 792 b 326 833 254 820 287 833 l 743 833 l 743 972 l 326 972 l 49 694 l 49 278 l 326 0 l 465 0 l 743 278 l 743 556 l 604 556 l 604 278 b 565 178 604 239 591 205 b 465 139 538 152 504 139 l 326 139 b 227 178 287 139 254 152 b 187 278 200 205 187 239 l 187 694 b 227 792 187 732 200 765 z "},"H":{"ha":858,"x_min":0,"x_max":0,"o":"m 637 972 l 637 694 b 596 595 637 655 624 622 b 499 556 569 569 536 556 l 221 556 l 221 972 l 82 972 l 82 0 l 221 0 l 221 417 l 499 417 l 637 556 l 637 0 l 776 0 l 776 972 z "},"I":{"ha":515,"x_min":0,"x_max":0,"o":"m 206 1111 l 206 1250 l 67 1250 l 67 1111 z m 344 139 b 245 178 305 139 272 152 b 206 278 219 205 206 239 l 206 972 l 67 972 l 67 278 l 344 0 l 509 0 l 509 139 z "},"J":{"ha":794,"x_min":0,"x_max":0,"o":"m 726 1111 l 726 1250 l 588 1250 l 588 1111 z m 588 278 b 548 178 588 239 575 205 b 449 139 521 152 488 139 l 310 139 b 210 178 271 139 237 152 b 171 278 184 205 171 239 l 171 556 l 32 556 l 32 278 l 310 0 l 449 0 l 726 278 l 726 972 l 587 972 l 587 278 z "},"K":{"ha":831,"x_min":0,"x_max":0,"o":"m 361 694 l 778 694 l 778 833 l 361 833 l 222 694 l 222 972 l 83 972 l 83 0 l 222 0 l 222 417 l 500 417 b 598 376 538 417 570 403 b 639 278 625 348 639 315 l 639 0 l 778 0 l 778 278 l 500 556 l 222 556 b 261 653 222 593 235 626 b 361 695 289 681 322 695 z "},"L":{"ha":765,"x_min":0,"x_max":0,"o":"m 343 139 b 243 178 304 139 271 152 b 204 278 217 205 204 239 l 204 972 l 65 972 l 65 278 l 343 0 l 760 0 l 760 139 z "},"M":{"ha":1122,"x_min":0,"x_max":0,"o":"m 778 972 l 500 972 l 500 903 l 431 972 l 83 972 l 83 0 l 222 0 l 222 833 l 500 833 l 500 0 l 639 0 l 639 833 l 778 833 b 875 792 815 833 848 820 b 917 694 903 765 917 732 l 917 0 l 1056 0 l 1056 694 z "},"N":{"ha":844,"x_min":0,"x_max":0,"o":"m 500 972 l 83 972 l 83 0 l 222 0 l 222 833 l 500 833 b 598 792 538 833 570 820 b 639 694 625 765 639 732 l 639 0 l 778 0 l 778 694 z "},"O":{"ha":826,"x_min":0,"x_max":0,"o":"m 344 972 l 67 694 l 67 0 l 483 0 l 761 278 l 761 972 z m 622 278 b 581 178 622 239 608 205 b 483 139 554 152 521 139 l 206 139 l 206 694 b 245 792 206 732 219 765 b 344 833 272 820 305 833 l 622 833 l 622 278 z "},"P":{"ha":783,"x_min":0,"x_max":0,"o":"m 344 972 l 67 694 l 67 0 l 206 0 l 206 417 l 483 417 l 761 694 l 761 972 z m 622 694 b 581 597 622 657 608 624 b 483 556 553 569 521 556 l 206 556 l 206 694 b 245 794 206 733 219 767 b 344 833 272 820 305 833 l 622 833 l 622 694 z "},"Q":{"ha":826,"x_min":0,"x_max":0,"o":"m 344 972 l 67 694 l 67 0 l 458 0 l 597 -139 l 761 -139 l 761 0 l 597 0 b 511 28 564 0 536 10 l 761 278 l 761 972 z m 622 278 b 581 178 622 239 608 205 b 483 139 554 152 521 139 l 206 139 l 206 694 b 245 792 206 732 219 765 b 344 833 272 819 305 833 l 622 833 l 622 278 z "},"R":{"ha":840,"x_min":0,"x_max":0,"o":"m 778 972 l 361 972 l 222 833 l 222 972 l 83 972 l 83 0 l 222 0 l 222 417 l 500 417 b 598 375 538 417 570 403 b 639 278 625 348 639 315 l 639 0 l 778 0 l 778 278 l 569 486 l 778 694 z m 639 694 b 598 597 639 657 625 624 b 500 556 570 569 538 556 l 222 556 l 222 694 b 261 794 222 733 235 767 b 361 833 289 820 322 833 l 639 833 l 639 694 z "},"S":{"ha":799,"x_min":0,"x_max":0,"o":"m 192 556 l 192 694 b 231 794 192 733 205 767 b 331 833 258 820 291 833 l 747 833 l 747 972 l 331 972 l 53 694 l 53 417 l 608 417 l 608 278 b 569 178 608 239 595 205 b 469 139 542 152 509 139 l 53 139 l 53 0 l 469 0 l 747 278 l 747 556 z "},"T":{"ha":776,"x_min":0,"x_max":0,"o":"m 750 972 l 4 972 l 4 833 l 308 833 l 308 278 l 585 0 l 750 0 l 750 139 l 585 139 b 485 178 546 139 513 152 b 446 278 459 205 446 239 l 446 833 l 750 833 z "},"U":{"ha":843,"x_min":0,"x_max":0,"o":"m 621 972 l 621 139 l 343 139 b 243 178 304 139 271 152 b 204 278 217 205 204 239 l 204 972 l 65 972 l 65 278 l 343 0 l 760 0 l 760 972 z "},"V":{"ha":825,"x_min":0,"x_max":0,"o":"m 621 972 l 621 278 b 580 178 621 239 607 205 b 482 139 552 152 520 139 l 343 139 b 243 178 304 139 271 152 b 204 278 217 205 204 239 l 204 972 l 65 972 l 65 278 l 343 0 l 482 0 l 760 278 l 760 972 z "},"W":{"ha":1122,"x_min":0,"x_max":0,"o":"m 899 972 l 899 139 l 621 139 l 621 972 l 482 972 l 482 139 l 343 139 b 243 178 304 139 271 152 b 204 278 217 205 204 239 l 204 972 l 65 972 l 65 278 l 343 0 l 621 0 l 621 69 l 690 0 l 1037 0 l 1037 972 z "},"X":{"ha":750,"x_min":0,"x_max":0,"o":"m 722 833 l 722 972 l 583 972 l 375 764 l 167 972 l 28 972 l 28 833 l 138 833 b 306 764 201 833 261 808 l 306 208 b 138 139 261 164 201 139 l 28 139 l 28 0 l 167 0 l 375 208 l 583 0 l 722 0 l 722 139 l 612 139 b 444 208 549 139 489 164 l 444 764 b 612 833 489 808 549 833 z "},"Y":{"ha":806,"x_min":0,"x_max":0,"o":"m 601 972 l 601 556 l 324 556 b 224 595 285 556 251 569 b 185 694 198 622 185 655 l 185 972 l 46 972 l 46 694 l 324 417 l 601 417 l 601 278 b 562 178 601 239 588 206 b 462 139 535 152 502 139 l 46 139 l 46 0 l 462 0 l 740 278 l 740 972 z "},"Z":{"ha":764,"x_min":0,"x_max":0,"o":"m 451 417 l 729 833 l 729 972 l 35 972 l 35 833 l 590 833 b 312 556 590 680 466 556 l 35 139 l 35 0 l 729 0 l 729 139 l 174 139 b 451 417 174 292 298 417 z "},"[":{"ha":401,"x_min":0,"x_max":0,"o":"m 332 833 l 332 972 l 83 972 l 83 0 l 332 0 l 332 139 l 222 139 l 222 833 z "},"\\":{"ha":467,"x_min":0,"x_max":0,"o":"m 197 972 l 58 972 l 269 0 l 407 0 z "},"]":{"ha":401,"x_min":0,"x_max":0,"o":"m 318 972 l 69 972 l 69 833 l 179 833 l 179 139 l 69 139 l 69 0 l 318 0 z "},"^":{"ha":574,"x_min":0,"x_max":0,"o":"m 287 935 l 46 694 l 194 694 l 287 787 l 379 694 l 528 694 z "},"_":{"ha":794,"x_min":0,"x_max":0,"o":"m 711 -138 l 711 0 l 83 0 l 83 -138 z "},"`":{"ha":406,"x_min":0,"x_max":0,"o":"m -28 1041 l 98 903 l 362 903 l 362 1041 z "},"a":{"ha":822,"x_min":0,"x_max":0,"o":"m 331 694 l 53 417 l 53 0 l 469 0 l 608 139 l 608 0 l 747 0 l 747 694 z m 608 278 b 567 178 608 239 595 205 b 469 139 540 152 507 139 l 192 139 l 192 417 b 231 514 192 454 205 487 b 331 555 258 542 292 555 l 608 555 l 608 278 z "},"b":{"ha":800,"x_min":0,"x_max":0,"o":"m 469 694 l 192 694 l 192 972 l 53 972 l 53 278 l 331 0 l 747 0 l 747 417 z m 608 139 l 331 139 b 231 178 292 139 258 152 b 192 278 205 205 192 239 l 192 556 l 469 556 b 567 514 507 556 540 542 b 608 417 595 487 608 454 l 608 139 z "},"c":{"ha":765,"x_min":0,"x_max":0,"o":"m 208 514 b 308 556 236 542 269 556 l 725 556 l 725 694 l 308 694 l 31 417 l 31 278 l 308 0 l 725 0 l 725 139 l 308 139 b 208 178 269 139 236 152 b 169 278 182 205 169 239 l 169 417 b 208 514 169 454 182 487 z "},"d":{"ha":800,"x_min":0,"x_max":0,"o":"m 608 972 l 608 694 l 331 694 l 53 417 l 53 0 l 469 0 l 747 278 l 747 972 z m 608 278 b 567 178 608 239 595 205 b 469 139 540 152 507 139 l 192 139 l 192 417 b 231 514 192 454 205 487 b 331 555 258 542 292 555 l 608 555 l 608 278 z "},"e":{"ha":783,"x_min":0,"x_max":0,"o":"m 725 417 l 725 694 l 308 694 l 31 417 l 31 278 l 308 0 l 725 0 l 725 139 l 308 139 b 208 178 269 139 236 152 b 169 278 182 205 169 239 l 586 278 l 725 417 z m 517 417 l 169 417 b 209 514 169 454 183 487 b 308 556 236 542 269 556 l 586 556 l 586 486 b 565 436 586 466 579 449 b 517 417 551 423 536 417 z "},"f":{"ha":453,"x_min":0,"x_max":0,"o":"m 521 833 l 521 972 l 353 972 l 75 694 l 75 0 l 214 0 l 214 556 l 433 556 l 433 694 l 214 694 b 253 792 214 732 227 765 b 353 833 280 820 314 833 z "},"g":{"ha":800,"x_min":0,"x_max":0,"o":"m 469 694 l 53 694 l 53 278 l 331 0 l 608 0 b 567 -98 608 -38 595 -70 b 469 -139 540 -125 507 -139 l 53 -139 l 53 -278 l 469 -278 l 747 0 l 747 417 l 469 694 z m 608 139 l 331 139 b 231 178 292 139 258 152 b 192 278 205 205 192 239 l 192 556 l 469 556 b 567 514 507 556 540 542 b 608 417 595 487 608 454 l 608 139 z "},"h":{"ha":822,"x_min":0,"x_max":0,"o":"m 492 694 l 214 694 l 214 972 l 75 972 l 75 0 l 214 0 l 214 556 l 492 556 b 589 514 529 556 562 542 b 631 417 617 487 631 454 l 631 0 l 769 0 l 769 417 l 492 694 z "},"i":{"ha":514,"x_min":0,"x_max":0,"o":"m 192 833 l 192 972 l 53 972 l 53 833 z m 331 139 b 231 178 292 139 258 152 b 192 278 205 205 192 239 l 192 694 l 53 694 l 53 278 l 331 0 l 495 0 l 495 139 z "},"j":{"ha":290,"x_min":0,"x_max":0,"o":"m 76 0 b 34 -98 76 -38 62 -70 b -63 -139 7 -125 -26 -139 l -228 -139 l -228 -278 l -63 -278 l 214 0 l 214 694 l 76 694 z m 214 833 l 214 972 l 76 972 l 76 833 z "},"k":{"ha":813,"x_min":0,"x_max":0,"o":"m 353 556 l 769 556 l 769 694 l 353 694 l 214 556 l 214 972 l 75 972 l 75 0 l 214 0 l 214 278 l 492 278 b 589 237 529 278 562 264 b 631 139 617 209 631 176 l 631 0 l 769 0 l 769 139 l 492 417 l 214 417 b 253 514 214 454 227 487 b 353 556 280 542 314 556 z "},"l":{"ha":514,"x_min":0,"x_max":0,"o":"m 331 139 b 231 178 292 139 258 152 b 192 278 205 205 192 239 l 192 972 l 53 972 l 53 278 l 331 0 l 495 0 l 495 139 z "},"m":{"ha":1100,"x_min":0,"x_max":0,"o":"m 769 694 l 492 694 l 492 625 l 422 694 l 75 694 l 75 0 l 214 0 l 214 556 l 492 556 l 492 0 l 631 0 l 631 556 l 769 556 b 867 514 807 556 840 542 b 908 417 895 487 908 454 l 908 0 l 1047 0 l 1047 417 z "},"n":{"ha":822,"x_min":0,"x_max":0,"o":"m 492 694 l 75 694 l 75 0 l 214 0 l 214 556 l 492 556 b 589 514 529 556 562 542 b 631 417 617 487 631 454 l 631 0 l 769 0 l 769 417 z "},"o":{"ha":800,"x_min":0,"x_max":0,"o":"m 331 694 l 53 417 l 53 0 l 469 0 l 747 278 l 747 694 z m 608 278 b 567 178 608 239 595 205 b 469 139 540 152 507 139 l 192 139 l 192 417 b 231 514 192 454 205 487 b 331 555 258 542 292 555 l 608 555 l 608 278 z "},"p":{"ha":800,"x_min":0,"x_max":0,"o":"m 331 694 l 53 417 l 53 -347 l 192 -347 l 192 0 l 469 0 l 747 278 l 747 694 z m 608 278 b 567 178 608 239 595 205 b 469 139 540 152 507 139 l 192 139 l 192 417 b 231 514 192 454 205 487 b 331 555 258 542 292 555 l 608 555 l 608 278 z "},"q":{"ha":800,"x_min":0,"x_max":0,"o":"m 469 694 l 53 694 l 53 278 l 331 0 l 608 0 l 608 -347 l 747 -347 l 747 417 z m 608 139 l 331 139 b 231 178 291 139 258 152 b 192 278 205 205 192 239 l 192 556 l 469 556 b 567 514 507 556 540 542 b 608 417 595 487 608 454 l 608 139 z "},"r":{"ha":514,"x_min":0,"x_max":0,"o":"m 331 694 l 53 417 l 53 0 l 192 0 l 192 417 b 231 514 192 454 205 487 b 331 556 258 542 292 556 l 495 556 l 495 694 z "},"s":{"ha":789,"x_min":0,"x_max":0,"o":"m 325 556 l 742 556 l 742 694 l 325 694 l 47 417 l 47 278 l 603 278 b 562 178 603 239 589 205 b 464 139 534 152 502 139 l 47 139 l 47 0 l 464 0 l 742 278 l 742 417 l 186 417 b 225 514 186 454 199 487 b 325 555 253 542 286 555 z "},"t":{"ha":640,"x_min":0,"x_max":0,"o":"m 599 556 l 599 694 l 296 694 l 296 972 l 157 972 l 157 694 l 18 694 l 18 556 l 157 556 l 157 278 l 435 0 l 599 0 l 599 139 l 435 139 b 335 178 396 139 362 152 b 296 278 309 205 296 239 l 296 556 l 599 556 z "},"u":{"ha":822,"x_min":0,"x_max":0,"o":"m 608 694 l 608 139 l 331 139 b 231 178 292 139 258 152 b 192 278 205 205 192 239 l 192 694 l 53 694 l 53 278 l 331 0 l 747 0 l 747 694 z "},"v":{"ha":800,"x_min":0,"x_max":0,"o":"m 608 694 l 608 278 b 567 178 608 239 595 205 b 469 139 540 152 507 139 l 331 139 b 231 178 292 139 258 152 b 192 278 205 205 192 239 l 192 694 l 53 694 l 53 278 l 331 0 l 469 0 l 747 278 l 747 694 z "},"w":{"ha":1100,"x_min":0,"x_max":0,"o":"m 886 694 l 886 139 l 608 139 l 608 694 l 469 694 l 469 139 l 331 139 b 231 178 292 139 258 152 b 192 278 205 205 192 239 l 192 694 l 53 694 l 53 278 l 331 0 l 608 0 l 608 69 l 678 0 l 1025 0 l 1025 694 z "},"x":{"ha":775,"x_min":0,"x_max":0,"o":"m 625 556 l 735 556 l 735 694 l 596 694 l 387 486 l 179 694 l 40 694 l 40 556 l 150 556 b 318 486 213 556 274 531 l 318 208 b 150 139 274 164 213 139 l 40 139 l 40 0 l 179 0 l 387 208 l 596 0 l 735 0 l 735 139 l 625 139 b 457 208 562 139 501 164 l 457 486 b 625 556 501 531 562 556 z "},"y":{"ha":822,"x_min":0,"x_max":0,"o":"m 608 694 l 608 139 l 331 139 b 231 178 292 139 258 152 b 192 278 205 205 192 239 l 192 694 l 53 694 l 53 278 l 331 0 l 608 0 b 567 -98 608 -38 595 -70 b 469 -139 540 -125 507 -139 l 53 -139 l 53 -278 l 469 -278 l 747 0 l 747 694 z "},"z":{"ha":782,"x_min":0,"x_max":0,"o":"m 460 278 l 737 556 l 737 694 l 43 694 l 43 556 l 599 556 b 557 456 599 516 585 483 b 460 417 530 430 497 417 l 321 417 l 43 139 l 43 0 l 738 0 l 738 139 l 182 139 b 221 237 182 176 195 209 b 321 278 249 264 282 278 z "},"{":{"ha":517,"x_min":0,"x_max":0,"o":"m 338 784 b 387 833 338 811 360 833 l 447 833 l 447 972 l 337 972 b 199 833 261 972 199 910 l 199 603 l 60 554 l 60 418 l 199 369 l 199 139 b 337 0 199 62 261 0 l 447 0 l 447 139 l 387 139 b 338 188 360 139 338 161 z "},"|":{"ha":306,"x_min":0,"x_max":0,"o":"m 222 -246 l 222 972 l 83 972 l 83 -246 z "},"}":{"ha":517,"x_min":0,"x_max":0,"o":"m 318 603 l 318 833 b 179 972 318 910 256 972 l 69 972 l 69 833 l 130 833 b 179 784 157 833 179 811 l 179 188 b 130 139 179 161 157 139 l 69 139 l 69 0 l 179 0 b 318 139 256 0 318 62 l 318 369 l 457 418 l 457 554 z "},"~":{"ha":799,"x_min":0,"x_max":0,"o":"m 662 438 b 542 324 635 370 595 324 b 438 364 511 324 486 336 b 421 374 434 366 429 370 l 394 391 b 313 431 362 409 335 422 b 244 444 292 440 269 444 b 51 268 171 444 106 385 l 134 197 b 244 307 157 260 195 307 b 354 266 276 307 304 294 l 377 254 l 421 229 b 549 189 469 202 511 189 b 746 369 625 189 690 249 z "}," ":{"ha":424,"x_min":0,"x_max":0,"o":""},"¡":{"ha":300,"x_min":0,"x_max":0,"o":"m 219 833 l 219 972 l 81 972 l 81 833 z m 219 0 l 219 694 l 81 694 l 81 0 z "},"¢":{"ha":824,"x_min":0,"x_max":0,"o":"m 753 694 l 753 833 l 544 833 l 544 972 l 406 972 l 406 833 l 336 833 l 58 556 l 58 417 l 336 139 l 406 139 l 406 0 l 544 0 l 544 139 l 753 139 l 753 278 l 544 278 l 544 694 z m 406 278 l 336 278 b 236 317 297 278 264 291 b 197 417 210 344 197 378 l 197 556 b 236 653 197 593 210 626 b 336 694 264 681 297 694 l 406 694 z "},"£":{"ha":967,"x_min":0,"x_max":0,"o":"m 507 139 b 407 178 468 139 435 152 b 368 278 381 205 368 239 l 368 320 l 735 320 l 735 459 l 368 459 l 368 514 l 735 514 l 735 652 l 368 652 l 368 972 l 229 972 l 229 652 l 67 652 l 67 513 l 229 513 l 229 459 l 67 459 l 67 320 l 229 320 l 229 278 l 507 0 l 924 0 l 924 139 l 507 139 z "},"¤":{"ha":744,"x_min":0,"x_max":0,"o":"m 637 397 b 591 546 637 451 621 502 l 680 635 l 611 705 l 521 615 b 372 661 477 646 427 661 b 223 615 317 661 267 646 l 133 705 l 64 635 l 153 546 b 107 397 123 502 107 451 b 153 247 107 342 123 291 l 64 158 l 133 89 l 222 178 b 372 132 267 147 317 132 b 521 178 427 132 477 147 l 611 89 l 680 158 l 591 247 b 637 397 621 291 637 342 z m 489 280 b 372 230 456 246 418 230 b 255 280 326 230 288 246 b 206 397 222 313 206 351 b 255 513 206 442 222 480 b 372 563 288 547 327 563 b 489 513 418 563 456 547 b 538 397 522 480 538 442 b 489 280 538 351 522 313 z "},"¥":{"ha":842,"x_min":0,"x_max":0,"o":"m 490 572 l 768 850 l 768 972 l 629 972 l 629 850 b 588 750 629 811 615 777 b 490 711 560 724 528 711 l 351 711 b 252 750 312 711 279 724 b 212 850 226 777 212 811 l 212 972 l 74 972 l 74 850 l 351 572 l 351 486 l 87 486 l 87 347 l 351 347 l 351 297 l 87 297 l 87 158 l 351 158 l 351 0 l 490 0 l 490 158 l 755 158 l 755 297 l 490 297 l 490 347 l 755 347 l 755 486 l 490 486 l 490 572 z "},"§":{"ha":640,"x_min":0,"x_max":0,"o":"m 562 682 l 175 682 l 175 779 b 202 848 175 806 184 829 b 271 875 221 866 244 875 l 562 875 l 562 972 l 271 972 l 78 779 l 78 585 l 179 585 l 78 484 l 78 290 l 465 290 l 465 194 b 438 124 465 166 456 143 b 368 97 419 106 395 97 l 78 97 l 78 0 l 368 0 l 562 194 l 562 387 l 460 387 l 562 488 z m 465 488 b 438 419 465 461 456 438 b 368 392 419 401 395 392 l 175 392 l 175 484 b 202 553 175 511 184 534 b 271 581 221 571 244 581 l 465 581 z "},"¨":{"ha":513,"x_min":0,"x_max":0,"o":"m 397 1046 b 323 972 356 1046 323 1013 b 397 899 323 932 356 899 b 470 972 437 899 470 932 b 397 1046 470 1013 437 1046 z m 115 1046 b 42 972 75 1046 42 1013 b 115 899 42 932 75 899 b 188 972 156 899 188 932 b 115 1046 188 1013 156 1046 z "},"©":{"ha":738,"x_min":0,"x_max":0,"o":"m 440 404 b 379 383 424 390 404 383 b 334 394 363 383 348 387 b 300 423 321 401 309 411 b 278 465 290 435 283 449 b 271 516 273 481 271 498 b 278 564 271 533 273 549 b 298 603 282 579 289 592 b 331 629 307 614 318 623 b 377 639 345 636 360 639 b 437 619 401 639 421 633 b 468 568 453 606 463 589 l 524 568 b 475 661 518 609 502 640 b 377 693 448 682 415 693 b 305 679 351 693 326 688 b 251 641 284 669 266 657 b 217 585 236 626 225 607 b 205 516 209 564 205 540 b 217 442 205 489 209 465 b 252 383 225 419 237 400 b 307 344 268 366 286 353 b 379 330 329 335 353 330 b 430 339 397 330 414 333 b 474 364 447 344 461 353 b 506 404 486 375 497 388 b 525 457 515 419 521 437 l 468 457 b 440 404 465 435 456 418 z m 646 642 b 580 739 630 679 608 712 b 484 801 552 765 520 786 b 369 823 448 816 409 823 b 253 801 329 823 290 816 b 157 739 217 786 184 765 b 91 642 129 712 107 679 b 67 516 75 604 67 562 b 89 394 67 472 74 431 b 152 296 104 356 125 324 b 247 232 178 269 210 247 b 369 208 284 216 325 208 b 484 230 409 208 448 216 b 580 293 520 245 552 266 b 646 390 608 320 630 352 b 670 516 662 428 670 470 b 646 642 670 562 662 604 z m 586 413 b 536 332 574 382 558 355 b 461 280 515 310 490 293 b 369 262 433 268 402 262 b 271 282 333 262 300 268 b 196 337 241 295 217 314 b 149 417 176 360 160 386 b 132 516 138 448 132 481 b 150 619 132 553 138 587 b 201 699 163 650 179 677 b 276 751 222 722 247 739 b 369 770 305 764 336 770 b 461 751 402 770 433 764 b 536 699 490 739 515 722 b 586 619 557 677 574 650 b 604 516 598 587 604 553 b 586 413 604 478 598 444 z "},"«":{"ha":1525,"x_min":0,"x_max":0,"o":"m 761 515 l 715 646 l 60 415 l 60 279 l 715 49 l 761 180 l 285 347 z m 1462 515 l 1416 646 l 761 415 l 761 279 l 1416 49 l 1462 180 l 986 347 z "},"­":{"ha":0,"x_min":0,"x_max":0,"o":""},"®":{"ha":485,"x_min":0,"x_max":0,"o":"m 409 845 b 369 904 399 868 386 887 b 311 941 353 920 333 932 b 243 954 290 950 267 954 b 173 941 218 954 195 950 b 115 904 151 932 132 920 b 76 845 99 887 85 868 b 61 770 66 823 61 798 b 75 697 61 744 66 719 b 112 638 84 674 96 655 b 169 600 128 622 147 609 b 243 585 192 590 216 585 b 311 599 267 585 290 590 b 369 636 333 608 353 620 b 409 695 386 652 399 672 b 423 770 418 717 423 742 b 409 845 423 798 418 823 z m 373 708 b 343 660 366 689 356 673 b 298 629 330 646 315 636 b 243 617 281 621 262 617 b 184 630 221 617 201 622 b 139 662 166 638 151 649 b 110 711 127 676 117 692 b 101 770 104 729 101 749 b 111 832 101 792 104 813 b 142 880 119 850 129 866 b 187 911 154 893 169 904 b 243 922 204 919 223 922 b 298 911 262 922 281 919 b 343 880 315 904 330 893 b 373 832 356 866 366 850 b 384 770 380 813 384 792 b 373 708 384 747 380 727 z m 309 769 b 325 810 319 778 325 791 b 306 855 325 831 318 846 b 250 869 293 864 275 869 l 173 869 l 173 664 l 206 664 l 206 752 l 238 752 l 291 664 l 329 664 l 271 754 b 309 769 286 756 299 761 z m 244 780 l 206 780 l 206 840 l 247 840 b 262 839 252 840 257 840 b 276 835 267 839 272 837 b 287 827 280 834 284 831 b 291 812 290 823 291 819 b 287 795 291 805 290 799 b 277 785 284 791 281 787 b 262 781 272 783 267 781 b 244 780 256 780 250 780 z "},"°":{"ha":447,"x_min":0,"x_max":0,"o":"m 339 924 b 223 972 306 956 268 972 b 108 924 179 972 140 956 b 60 809 76 892 60 853 b 108 693 60 763 76 724 b 223 645 140 661 179 645 b 339 693 268 645 306 661 b 387 809 371 724 387 763 b 339 924 387 853 371 892 z m 304 728 b 223 695 281 706 255 695 b 143 728 192 695 165 706 b 110 809 121 749 110 776 b 143 889 110 840 121 867 b 223 922 165 911 192 922 b 304 889 255 922 281 911 b 337 809 326 867 337 840 b 304 728 337 776 326 749 z "},"±":{"ha":825,"x_min":0,"x_max":0,"o":"m 482 632 l 482 910 l 343 910 l 343 632 l 65 632 l 65 493 l 343 493 l 343 216 l 482 216 l 482 493 l 760 493 l 760 632 z m 760 0 l 760 139 l 65 139 l 65 0 z "},"´":{"ha":406,"x_min":0,"x_max":0,"o":"m 43 1041 l 43 903 l 307 903 l 433 1041 z "},"¶":{"ha":735,"x_min":0,"x_max":0,"o":"m 650 0 l 650 972 l 513 972 l 513 0 z m 58 741 b 290 510 58 613 162 510 l 290 0 l 426 0 l 426 972 l 290 972 b 58 741 162 972 58 869 z "},"¸":{"ha":122,"x_min":0,"x_max":0,"o":"m 122 0 l 1 0 b -15 -1 -4 0 -9 -1 l -179 -1 l -179 -140 l -15 -140 l 124 -1 l 122 0 z "},"»":{"ha":1525,"x_min":0,"x_max":0,"o":"m 810 646 l 764 515 l 1240 347 l 764 180 l 810 49 l 1465 279 l 1465 415 z m 764 415 l 109 646 l 62 515 l 539 347 l 62 180 l 109 49 l 764 279 z "},"¿":{"ha":839,"x_min":0,"x_max":0,"o":"m 761 833 l 761 971 l 623 971 l 623 833 z m 622 694 l 622 556 l 67 556 l 67 278 l 344 0 l 761 0 l 761 139 l 355 139 l 206 278 l 206 417 l 761 417 l 761 694 z "},"À":{"ha":844,"x_min":0,"x_max":0,"o":"m 344 972 l 67 694 l 67 0 l 206 0 l 206 278 l 483 278 l 622 417 l 622 0 l 761 0 l 761 972 z m 622 556 b 581 456 622 516 608 483 b 483 417 553 430 521 417 l 206 417 l 206 694 b 245 792 206 732 219 765 b 344 833 272 819 305 833 l 622 833 l 622 556 z m 609 1042 l 609 1180 l 219 1180 l 345 1042 z "},"Á":{"ha":844,"x_min":0,"x_max":0,"o":"m 344 972 l 67 694 l 67 0 l 206 0 l 206 278 l 483 278 l 622 417 l 622 0 l 761 0 l 761 972 z m 622 556 b 581 456 622 516 608 483 b 483 417 553 430 521 417 l 206 417 l 206 694 b 245 792 206 732 219 765 b 344 833 272 819 305 833 l 622 833 l 622 556 z m 735 1180 l 345 1180 l 345 1042 l 609 1042 z "},"Â":{"ha":844,"x_min":0,"x_max":0,"o":"m 67 694 l 67 0 l 206 0 l 206 278 l 483 278 l 622 417 l 622 0 l 761 0 l 761 972 l 344 972 z m 622 556 b 581 456 622 516 608 483 b 483 417 553 430 521 417 l 206 417 l 206 694 b 245 792 206 732 219 765 b 344 833 272 819 305 833 l 622 833 l 622 556 z m 520 1134 l 612 1041 l 761 1041 l 520 1282 l 279 1041 l 428 1041 z "},"Ã":{"ha":844,"x_min":0,"x_max":0,"o":"m 67 694 l 67 0 l 206 0 l 206 278 l 483 278 l 622 417 l 622 0 l 761 0 l 761 972 l 344 972 z m 622 556 b 581 456 622 516 608 483 b 483 417 553 430 521 417 l 206 417 l 206 694 b 245 792 206 732 219 765 b 344 833 272 819 305 833 l 622 833 l 622 556 z m 385 1131 b 467 1100 409 1131 430 1121 l 484 1091 l 517 1072 b 614 1042 553 1052 585 1042 b 761 1177 670 1042 720 1087 l 698 1229 b 609 1143 678 1178 648 1143 b 530 1173 585 1143 566 1152 b 517 1181 528 1175 523 1178 l 497 1193 b 437 1224 473 1207 453 1217 b 385 1233 421 1230 403 1233 b 240 1102 330 1233 281 1189 l 302 1048 b 385 1131 319 1096 348 1131 z "},"Ä":{"ha":844,"x_min":0,"x_max":0,"o":"m 67 694 l 67 0 l 206 0 l 206 278 l 483 278 l 622 417 l 622 0 l 761 0 l 761 972 l 344 972 z m 622 556 b 581 456 622 516 608 483 b 483 417 553 430 521 417 l 206 417 l 206 694 b 245 792 206 732 219 765 b 344 833 272 819 305 833 l 622 833 l 622 556 z m 688 1038 b 761 1111 728 1038 761 1071 b 688 1184 761 1152 728 1184 b 614 1111 647 1184 614 1152 b 688 1038 614 1071 647 1038 z m 406 1038 b 479 1111 447 1038 479 1071 b 406 1184 479 1152 447 1184 b 333 1111 365 1184 333 1152 b 406 1038 333 1071 365 1038 z "},"Å":{"ha":844,"x_min":0,"x_max":0,"o":"m 344 972 l 67 694 l 67 0 l 206 0 l 206 278 l 483 278 l 622 417 l 622 0 l 761 0 l 761 972 z m 622 556 b 581 456 622 516 608 483 b 483 417 553 430 521 417 l 206 417 l 206 694 b 245 792 206 732 219 765 b 344 833 272 819 305 833 l 622 833 l 622 556 z m 556 1039 b 684 1167 627 1039 684 1097 b 556 1296 684 1238 627 1296 b 428 1167 486 1296 428 1238 b 556 1039 428 1097 486 1039 z m 556 1211 b 600 1167 580 1211 600 1192 b 556 1123 600 1143 580 1123 b 512 1167 532 1123 512 1143 b 556 1211 512 1192 532 1211 z "},"Æ":{"ha":1344,"x_min":0,"x_max":0,"o":"m 800 792 b 900 833 828 820 861 833 l 1317 833 l 1317 972 l 900 972 l 761 833 l 761 972 l 344 972 l 67 694 l 67 0 l 206 0 l 206 278 l 483 278 l 622 417 l 622 0 l 761 0 l 761 139 l 900 0 l 1317 0 l 1317 139 l 900 139 b 800 178 861 139 828 152 b 761 278 774 205 761 239 l 761 417 l 1064 417 l 1064 556 l 761 556 l 761 694 b 800 792 761 732 774 765 z m 622 694 l 622 556 b 581 456 622 516 608 483 b 483 417 553 430 521 417 l 206 417 l 206 694 b 245 792 206 732 219 765 b 344 833 272 819 305 833 l 622 833 l 622 694 z "},"Ç":{"ha":771,"x_min":0,"x_max":0,"o":"m 227 792 b 326 833 254 820 287 833 l 743 833 l 743 972 l 326 972 l 49 694 l 49 278 l 326 0 l 244 -1 l 244 -140 l 409 -140 l 548 -1 l 545 0 l 743 0 l 743 139 l 326 139 b 227 178 287 139 254 152 b 187 278 200 205 187 239 l 187 694 b 227 792 187 732 200 765 z "},"È":{"ha":771,"x_min":0,"x_max":0,"o":"m 227 792 b 326 833 254 820 287 833 l 743 833 l 743 972 l 326 972 l 49 694 l 49 278 l 326 0 l 743 0 l 743 139 l 326 139 b 227 178 287 139 254 152 b 187 278 200 205 187 239 l 187 417 l 491 417 l 491 556 l 187 556 l 187 694 b 227 792 187 732 200 765 z m 591 1042 l 591 1180 l 201 1180 l 327 1042 z "},"É":{"ha":771,"x_min":0,"x_max":0,"o":"m 227 792 b 326 833 254 820 287 833 l 743 833 l 743 972 l 326 972 l 49 694 l 49 278 l 326 0 l 743 0 l 743 139 l 326 139 b 227 178 287 139 254 152 b 187 278 200 205 187 239 l 187 417 l 491 417 l 491 556 l 187 556 l 187 694 b 227 792 187 732 200 765 z m 715 1180 l 325 1180 l 325 1042 l 589 1042 z "},"Ê":{"ha":771,"x_min":0,"x_max":0,"o":"m 227 792 b 326 833 254 820 287 833 l 743 833 l 743 972 l 326 972 l 49 694 l 49 278 l 326 0 l 743 0 l 743 139 l 326 139 b 227 178 287 139 254 152 b 187 278 200 205 187 239 l 187 417 l 491 417 l 491 556 l 187 556 l 187 694 b 227 792 187 732 200 765 z m 502 1134 l 594 1041 l 743 1041 l 502 1282 l 261 1041 l 410 1041 z "},"Ë":{"ha":771,"x_min":0,"x_max":0,"o":"m 49 278 l 326 0 l 743 0 l 743 139 l 326 139 b 227 178 287 139 254 152 b 187 278 200 205 187 239 l 187 417 l 491 417 l 491 556 l 187 556 l 187 694 b 227 792 187 732 200 765 b 326 833 254 820 287 833 l 743 833 l 743 972 l 326 972 l 49 694 z m 670 1038 b 743 1111 710 1038 743 1071 b 670 1184 743 1152 710 1184 b 596 1111 629 1184 596 1152 b 670 1038 596 1071 629 1038 z m 388 1038 b 461 1111 428 1038 461 1071 b 388 1184 461 1152 428 1184 b 315 1111 347 1184 315 1152 b 388 1038 315 1071 347 1038 z "},"Ì":{"ha":514,"x_min":0,"x_max":0,"o":"m 343 139 b 243 178 304 139 271 152 b 204 278 217 205 204 239 l 204 972 l 65 972 l 65 278 l 343 0 l 508 0 l 508 139 z m 264 1180 l -126 1180 l 0 1042 l 264 1042 z "},"Í":{"ha":514,"x_min":0,"x_max":0,"o":"m 344 139 b 244 178 305 139 271 152 b 205 278 218 205 205 239 l 205 972 l 66 972 l 66 278 l 344 0 l 508 0 l 508 139 z m 394 1180 l 4 1180 l 4 1042 l 268 1042 z "},"Î":{"ha":514,"x_min":0,"x_max":0,"o":"m 343 139 b 243 178 304 139 271 152 b 204 278 217 205 204 239 l 204 972 l 65 972 l 65 278 l 343 0 l 508 0 l 508 139 z m 222 1041 l 371 1041 l 130 1282 l -111 1041 l 37 1041 l 130 1134 z "},"Ï":{"ha":514,"x_min":0,"x_max":0,"o":"m 344 139 b 244 178 305 139 271 152 b 205 278 218 205 205 239 l 205 972 l 66 972 l 66 278 l 344 0 l 508 0 l 508 139 z m 276 1038 b 349 1111 316 1038 349 1071 b 276 1184 349 1152 316 1184 b 203 1111 235 1184 203 1152 b 276 1038 203 1071 235 1038 z m -6 1038 b 68 1111 35 1038 68 1071 b -6 1184 68 1152 35 1184 b -79 1111 -46 1184 -79 1152 b -6 1038 -79 1071 -46 1038 z "},"Ð":{"ha":885,"x_min":0,"x_max":0,"o":"m 539 972 l 122 972 l 122 556 l 28 556 l 28 417 l 122 417 l 122 278 l 400 0 l 817 0 l 817 694 l 539 972 z m 678 139 l 400 139 b 303 178 363 139 330 152 b 261 278 275 205 261 239 l 261 417 l 361 417 l 361 556 l 261 556 l 261 833 l 539 833 b 639 792 578 833 611 820 b 678 694 665 765 678 732 l 678 139 z "},"Ñ":{"ha":844,"x_min":0,"x_max":0,"o":"m 500 972 l 83 972 l 83 0 l 222 0 l 222 833 l 500 833 b 598 792 538 833 570 820 b 639 694 625 765 639 732 l 639 0 l 778 0 l 778 694 z m 228 1131 b 310 1100 252 1131 273 1121 l 327 1091 l 360 1072 b 457 1042 396 1052 428 1042 b 604 1177 513 1042 563 1087 l 541 1229 b 452 1143 521 1178 491 1143 b 373 1173 428 1143 409 1152 b 360 1181 371 1175 366 1178 l 340 1193 b 280 1224 316 1207 296 1217 b 228 1233 264 1230 246 1233 b 83 1102 173 1233 124 1189 l 145 1048 b 228 1131 162 1096 191 1131 z "},"Ò":{"ha":828,"x_min":0,"x_max":0,"o":"m 67 694 l 67 0 l 483 0 l 761 278 l 761 972 l 344 972 z m 622 278 b 581 178 622 239 608 205 b 483 139 553 152 521 139 l 206 139 l 206 694 b 245 792 206 732 219 765 b 344 833 272 820 305 833 l 622 833 l 622 278 z m 371 1180 l 497 1042 l 761 1042 l 761 1180 z "},"Ó":{"ha":828,"x_min":0,"x_max":0,"o":"m 344 972 l 67 694 l 67 0 l 483 0 l 761 278 l 761 972 z m 622 278 b 581 178 622 239 608 205 b 483 139 553 152 521 139 l 206 139 l 206 694 b 245 792 206 732 219 765 b 344 833 272 820 305 833 l 622 833 l 622 278 z m 738 1180 l 348 1180 l 348 1042 l 612 1042 z "},"Ô":{"ha":826,"x_min":0,"x_max":0,"o":"m 67 694 l 67 0 l 483 0 l 761 278 l 761 972 l 344 972 z m 622 278 b 581 178 622 239 608 205 b 483 139 554 152 521 139 l 206 139 l 206 694 b 245 792 206 732 219 765 b 344 833 272 820 305 833 l 622 833 l 622 278 z m 520 1134 l 613 1041 l 761 1041 l 520 1282 l 279 1041 l 428 1041 z "},"Õ":{"ha":826,"x_min":0,"x_max":0,"o":"m 67 694 l 67 0 l 483 0 l 761 278 l 761 972 l 344 972 z m 622 278 b 581 178 622 239 608 205 b 483 139 554 152 521 139 l 206 139 l 206 694 b 245 792 206 732 219 765 b 344 833 272 820 305 833 l 622 833 l 622 278 z m 385 1131 b 467 1100 409 1131 430 1121 l 484 1091 l 517 1072 b 614 1042 553 1052 585 1042 b 761 1177 670 1042 720 1087 l 698 1229 b 609 1143 678 1178 648 1143 b 530 1173 585 1143 566 1152 b 517 1181 528 1175 523 1178 l 497 1193 b 437 1224 473 1207 453 1217 b 385 1233 421 1230 403 1233 b 240 1102 330 1233 281 1189 l 302 1048 b 385 1131 319 1096 348 1131 z "},"Ö":{"ha":828,"x_min":0,"x_max":0,"o":"m 67 694 l 67 0 l 483 0 l 761 278 l 761 972 l 344 972 z m 622 278 b 581 178 622 239 608 205 b 483 139 554 152 521 139 l 206 139 l 206 694 b 245 792 206 732 219 765 b 344 833 272 820 305 833 l 622 833 l 622 278 z m 688 1038 b 761 1111 728 1038 761 1071 b 688 1184 761 1152 728 1184 b 614 1111 647 1184 614 1152 b 688 1038 614 1071 647 1038 z m 406 1038 b 479 1111 447 1038 479 1071 b 406 1184 479 1152 447 1184 b 333 1111 365 1184 333 1152 b 406 1038 333 1071 365 1038 z "},"×":{"ha":713,"x_min":0,"x_max":0,"o":"m 650 544 l 552 642 l 356 445 l 159 642 l 61 544 l 258 347 l 61 151 l 159 53 l 356 249 l 552 53 l 650 151 l 454 347 z "},"Ø":{"ha":850,"x_min":0,"x_max":0,"o":"m 356 972 l 78 694 l 78 58 l 40 0 l 494 0 l 772 278 l 772 914 l 810 972 z m 217 694 b 256 792 217 732 230 765 b 356 833 283 820 316 833 l 581 833 l 217 272 z m 633 278 b 592 178 633 239 620 205 b 494 139 565 152 532 139 l 269 139 l 633 700 z "},"Ù":{"ha":844,"x_min":0,"x_max":0,"o":"m 622 972 l 622 139 l 344 139 b 245 178 305 139 272 152 b 206 278 219 205 206 239 l 206 972 l 67 972 l 67 278 l 344 0 l 761 0 l 761 972 z m 551 1042 l 551 1180 l 161 1180 l 287 1042 z "},"Ú":{"ha":844,"x_min":0,"x_max":0,"o":"m 622 972 l 622 139 l 344 139 b 245 178 305 139 272 152 b 206 278 219 205 206 239 l 206 972 l 67 972 l 67 278 l 344 0 l 761 0 l 761 972 z m 676 1180 l 286 1180 l 286 1042 l 550 1042 z "},"Û":{"ha":844,"x_min":0,"x_max":0,"o":"m 622 972 l 622 139 l 344 139 b 245 178 305 139 272 152 b 206 278 219 205 206 239 l 206 972 l 67 972 l 67 278 l 344 0 l 761 0 l 761 972 z m 414 1134 l 506 1041 l 655 1041 l 414 1282 l 173 1041 l 322 1041 z "},"Ü":{"ha":844,"x_min":0,"x_max":0,"o":"m 622 972 l 622 139 l 344 139 b 245 178 305 139 272 152 b 206 278 219 205 206 239 l 206 972 l 67 972 l 67 278 l 344 0 l 761 0 l 761 972 z m 555 1038 b 628 1111 595 1038 628 1071 b 555 1185 628 1152 595 1185 b 481 1111 514 1185 481 1152 b 555 1038 481 1071 514 1038 z m 273 1038 b 346 1111 314 1038 346 1071 b 273 1185 346 1152 314 1185 b 200 1111 232 1185 200 1152 b 273 1038 200 1071 232 1038 z "},"Ý":{"ha":807,"x_min":0,"x_max":0,"o":"m 635 1180 l 245 1180 l 245 1042 l 509 1042 z m 601 972 l 601 556 l 324 556 b 224 595 285 556 251 569 b 185 694 198 622 185 655 l 185 972 l 46 972 l 46 694 l 324 417 l 601 417 l 601 278 b 562 178 601 239 588 206 b 462 139 535 152 502 139 l 46 139 l 46 0 l 462 0 l 740 278 l 740 972 z "},"Þ":{"ha":682,"x_min":0,"x_max":0,"o":"m 435 790 l 220 790 l 220 972 l 83 972 l 83 0 l 220 0 l 220 229 l 338 111 l 630 111 l 630 596 l 435 790 z m 532 208 l 338 208 b 270 235 312 208 289 217 b 241 305 251 254 241 277 l 241 693 l 435 693 b 505 664 463 693 486 683 b 532 596 523 645 532 622 z "},"ß":{"ha":813,"x_min":0,"x_max":0,"o":"m 353 972 l 214 833 l 214 972 l 75 972 l 75 0 l 214 0 l 214 417 l 492 417 b 589 375 529 417 562 403 b 631 278 617 348 631 315 l 631 139 l 353 139 l 353 0 l 622 0 b 769 148 703 0 769 66 l 769 278 l 561 486 l 769 694 l 769 972 z m 631 694 b 589 597 631 657 617 624 b 492 556 562 569 529 556 l 214 556 l 214 694 b 253 794 214 733 227 767 b 353 833 280 820 314 833 l 631 833 l 631 694 z "},"à":{"ha":822,"x_min":0,"x_max":0,"o":"m 53 417 l 53 0 l 469 0 l 608 139 l 608 0 l 747 0 l 747 694 l 331 694 z m 608 278 b 567 178 608 239 595 205 b 469 139 540 152 507 139 l 192 139 l 192 417 b 231 514 192 454 205 487 b 331 555 258 542 292 555 l 608 555 l 608 278 z m 357 916 l 483 778 l 747 778 l 747 916 z "},"á":{"ha":822,"x_min":0,"x_max":0,"o":"m 331 694 l 53 417 l 53 0 l 469 0 l 608 139 l 608 0 l 747 0 l 747 694 z m 608 278 b 567 178 608 239 595 205 b 469 139 540 152 507 139 l 192 139 l 192 417 b 231 514 192 454 205 487 b 331 555 258 542 292 555 l 608 555 l 608 278 z m 721 916 l 331 916 l 331 778 l 595 778 z "},"â":{"ha":822,"x_min":0,"x_max":0,"o":"m 53 417 l 53 0 l 469 0 l 608 139 l 608 0 l 747 0 l 747 694 l 331 694 z m 608 278 b 567 178 608 239 595 205 b 469 139 540 152 507 139 l 192 139 l 192 417 b 231 514 192 454 205 487 b 331 555 258 542 292 555 l 608 555 l 608 278 z m 506 870 l 599 777 l 747 777 l 506 1018 l 265 777 l 414 777 z "},"ã":{"ha":822,"x_min":0,"x_max":0,"o":"m 53 417 l 53 0 l 469 0 l 608 139 l 608 0 l 747 0 l 747 694 l 331 694 z m 608 278 b 567 178 608 239 595 205 b 469 139 540 152 507 139 l 192 139 l 192 417 b 231 514 192 454 205 487 b 331 555 258 542 291 555 l 608 555 l 608 278 z m 371 867 b 454 836 395 867 416 857 l 470 827 l 503 809 b 600 778 539 788 572 778 b 747 913 656 778 706 824 l 685 965 b 595 879 664 914 634 879 b 516 909 571 879 552 888 b 503 917 514 911 509 914 l 483 930 b 423 960 459 943 439 953 b 371 970 407 967 389 970 b 226 838 316 970 267 925 l 288 784 b 371 867 305 832 334 867 z "},"ä":{"ha":822,"x_min":0,"x_max":0,"o":"m 53 417 l 53 0 l 469 0 l 608 139 l 608 0 l 747 0 l 747 694 l 331 694 z m 608 278 b 567 178 608 239 595 205 b 469 139 540 152 507 139 l 192 139 l 192 417 b 231 514 192 454 205 487 b 331 555 258 542 292 555 l 608 555 l 608 278 z m 674 774 b 747 847 714 774 747 807 b 674 921 747 888 714 921 b 600 847 633 921 600 888 b 674 774 600 807 633 774 z m 392 774 b 465 847 433 774 465 807 b 392 921 465 888 433 921 b 319 847 352 921 319 888 b 392 774 319 807 352 774 z "},"å":{"ha":822,"x_min":0,"x_max":0,"o":"m 331 694 l 53 417 l 53 0 l 469 0 l 608 139 l 608 0 l 747 0 l 747 694 z m 608 278 b 567 178 608 239 595 205 b 469 139 540 152 507 139 l 192 139 l 192 417 b 231 514 192 454 205 487 b 331 555 258 542 292 555 l 608 555 l 608 278 z m 528 776 b 656 904 599 776 656 833 b 528 1032 656 974 599 1032 b 400 904 457 1032 400 974 b 528 776 400 833 457 776 z m 528 948 b 572 904 552 948 572 928 b 528 860 572 879 552 860 b 484 904 504 860 484 879 b 528 948 484 928 504 948 z "},"æ":{"ha":1361,"x_min":0,"x_max":0,"o":"m 1303 417 l 1303 694 l 886 694 l 747 556 l 747 694 l 331 694 l 53 417 l 53 0 l 469 0 l 608 139 l 608 0 l 747 0 l 747 139 l 886 0 l 1303 0 l 1303 139 l 886 139 b 786 178 847 139 814 152 b 747 278 760 205 747 239 l 1164 278 l 1303 417 z m 608 417 l 608 278 b 567 178 608 239 595 205 b 469 139 540 152 507 139 l 192 139 l 192 417 b 231 514 192 454 205 487 b 331 555 258 542 292 555 l 608 555 l 608 417 z m 1094 417 l 747 417 b 786 514 747 454 760 487 b 886 556 814 542 847 556 l 1164 556 l 1164 486 b 1142 436 1164 466 1157 449 b 1094 417 1129 423 1113 417 z "},"ç":{"ha":767,"x_min":0,"x_max":0,"o":"m 208 514 b 308 556 236 542 269 556 l 725 556 l 725 694 l 308 694 l 31 417 l 31 278 l 308 0 l 163 -1 l 163 -140 l 327 -140 l 466 -1 l 464 0 l 725 0 l 725 139 l 308 139 b 209 178 269 139 236 152 b 169 278 182 205 169 239 l 169 417 b 209 514 169 454 182 487 z "},"è":{"ha":785,"x_min":0,"x_max":0,"o":"m 31 417 l 31 278 l 308 0 l 725 0 l 725 139 l 308 139 b 209 178 269 139 236 152 b 169 278 182 205 169 239 l 586 278 l 725 417 l 725 694 l 308 694 l 31 417 z m 586 486 b 564 436 586 466 579 449 b 517 417 551 423 535 417 l 169 417 b 209 514 169 454 183 487 b 308 555 236 542 269 555 l 586 555 l 586 486 z m 335 916 l 461 778 l 725 778 l 725 916 z "},"é":{"ha":783,"x_min":0,"x_max":0,"o":"m 725 417 l 725 694 l 308 694 l 31 417 l 31 278 l 308 0 l 725 0 l 725 139 l 308 139 b 208 178 269 139 236 152 b 169 278 182 205 169 239 l 586 278 l 725 417 z m 517 417 l 169 417 b 209 514 169 454 183 487 b 308 556 236 542 269 556 l 586 556 l 586 486 b 565 436 586 466 579 449 b 517 417 551 423 536 417 z m 699 916 l 309 916 l 309 778 l 573 778 z "},"ê":{"ha":785,"x_min":0,"x_max":0,"o":"m 31 417 l 31 278 l 308 0 l 725 0 l 725 139 l 308 139 b 209 178 269 139 236 152 b 169 278 182 205 169 239 l 586 278 l 725 417 l 725 694 l 308 694 l 31 417 z m 586 486 b 564 436 586 466 579 449 b 517 417 551 423 535 417 l 169 417 b 209 514 169 454 183 487 b 308 555 236 542 269 555 l 586 555 l 586 486 z m 484 870 l 576 777 l 725 777 l 484 1018 l 243 777 l 392 777 z "},"ë":{"ha":785,"x_min":0,"x_max":0,"o":"m 31 417 l 31 278 l 308 0 l 725 0 l 725 139 l 308 139 b 209 178 269 139 236 152 b 169 278 182 205 169 239 l 586 278 l 725 417 l 725 694 l 308 694 l 31 417 z m 586 486 b 564 436 586 466 579 449 b 517 417 551 423 535 417 l 169 417 b 209 514 169 454 183 487 b 308 555 236 542 269 555 l 586 555 l 586 486 z m 652 773 b 725 846 692 773 725 806 b 652 919 725 887 692 919 b 578 846 611 919 578 887 b 652 773 578 806 611 773 z m 370 773 b 443 846 410 773 443 806 b 370 919 443 887 410 919 b 297 846 329 919 297 887 b 370 773 297 806 329 773 z "},"ì":{"ha":514,"x_min":0,"x_max":0,"o":"m 330 139 b 231 178 291 139 258 152 b 191 278 205 205 191 239 l 191 694 l 53 694 l 53 278 l 330 0 l 495 0 l 495 139 l 330 139 z m 193 916 l -197 916 l -71 778 l 193 778 z "},"í":{"ha":514,"x_min":0,"x_max":0,"o":"m 331 139 b 231 178 292 139 258 152 b 192 278 205 205 192 239 l 192 694 l 53 694 l 53 278 l 331 0 l 495 0 l 495 139 l 331 139 z m 443 916 l 53 916 l 53 778 l 317 778 z "},"î":{"ha":514,"x_min":0,"x_max":0,"o":"m 330 139 b 231 178 291 139 258 152 b 191 278 204 205 191 239 l 191 694 l 53 694 l 53 278 l 330 0 l 495 0 l 495 139 l 330 139 z m 215 777 l 364 777 l 123 1018 l -118 777 l 31 777 l 123 870 z "},"ï":{"ha":513,"x_min":0,"x_max":0,"o":"m 330 139 b 230 178 291 139 257 152 b 191 278 204 205 191 239 l 191 694 l 52 694 l 52 278 l 330 0 l 494 0 l 494 139 l 330 139 z m 257 773 b 330 846 297 773 330 806 b 257 919 330 887 297 919 b 183 846 216 919 183 887 b 257 773 183 806 216 773 z m -25 919 b -99 846 -66 919 -99 887 b -25 773 -99 806 -66 773 b 48 846 15 773 48 806 b -25 919 48 887 15 919 z "},"ð":{"ha":800,"x_min":0,"x_max":0,"o":"m 747 898 l 575 898 l 512 972 l 373 972 l 436 898 l 335 898 l 335 759 l 554 759 l 608 694 l 331 694 l 53 417 l 53 0 l 469 0 l 747 278 l 747 697 l 694 759 l 747 759 z m 608 278 b 567 178 608 239 595 205 b 469 139 540 152 507 139 l 192 139 l 192 417 b 231 514 192 454 205 487 b 331 555 258 542 292 555 l 608 555 l 608 278 z "},"ñ":{"ha":822,"x_min":0,"x_max":0,"o":"m 492 694 l 75 694 l 75 0 l 214 0 l 214 556 l 492 556 b 589 514 529 556 562 542 b 631 417 617 487 631 454 l 631 0 l 769 0 l 769 417 z m 220 867 b 302 836 243 867 265 857 l 319 827 l 352 809 b 448 778 388 788 420 778 b 596 913 505 778 554 824 l 533 965 b 443 879 513 914 483 879 b 365 909 420 879 401 888 b 352 917 362 911 358 914 l 332 930 b 272 960 308 943 288 953 b 220 970 255 967 238 970 b 75 838 164 970 116 925 l 137 784 b 220 867 154 832 183 867 z "},"ò":{"ha":800,"x_min":0,"x_max":0,"o":"m 53 417 l 53 0 l 469 0 l 747 278 l 747 694 l 331 694 z m 608 278 b 567 178 608 239 595 205 b 469 139 540 152 507 139 l 192 139 l 192 417 b 231 514 192 454 205 487 b 331 555 258 542 292 555 l 608 555 l 608 278 z m 357 916 l 483 778 l 747 778 l 747 916 z "},"ó":{"ha":800,"x_min":0,"x_max":0,"o":"m 331 694 l 53 417 l 53 0 l 469 0 l 747 278 l 747 694 z m 608 278 b 567 178 608 239 595 205 b 469 139 540 152 507 139 l 192 139 l 192 417 b 231 514 192 454 205 487 b 331 555 258 542 292 555 l 608 555 l 608 278 z m 719 916 l 329 916 l 329 778 l 593 778 z "},"ô":{"ha":800,"x_min":0,"x_max":0,"o":"m 53 417 l 53 0 l 469 0 l 747 278 l 747 694 l 331 694 z m 608 278 b 567 178 608 239 595 205 b 469 139 540 152 507 139 l 192 139 l 192 417 b 231 514 192 454 205 487 b 331 555 258 542 292 555 l 608 555 l 608 278 z m 506 870 l 599 777 l 747 777 l 506 1018 l 265 777 l 414 777 z "},"õ":{"ha":801,"x_min":0,"x_max":0,"o":"m 53 417 l 53 0 l 469 0 l 747 278 l 747 694 l 331 694 z m 608 278 b 567 178 608 239 595 205 b 469 139 540 152 507 139 l 192 139 l 192 417 b 231 514 192 454 205 487 b 331 555 258 542 292 555 l 608 555 l 608 278 z m 371 867 b 454 836 395 867 416 857 l 470 827 l 503 809 b 600 778 539 788 572 778 b 747 913 656 778 706 824 l 685 965 b 595 879 664 914 634 879 b 516 909 571 879 552 888 b 503 917 514 911 509 914 l 483 930 b 423 960 460 943 439 953 b 371 970 407 967 389 970 b 227 838 316 970 268 925 l 288 784 b 371 867 306 832 334 867 z "},"ö":{"ha":800,"x_min":0,"x_max":0,"o":"m 331 694 l 53 417 l 53 0 l 469 0 l 747 278 l 747 694 z m 608 278 b 567 178 608 239 595 205 b 469 139 540 152 507 139 l 192 139 l 192 417 b 231 514 192 454 205 487 b 331 555 258 542 292 555 l 608 555 l 608 278 z m 541 773 b 614 846 581 773 614 806 b 541 919 614 887 581 919 b 467 846 500 919 467 887 b 541 773 467 806 500 773 z m 259 773 b 333 846 300 773 333 806 b 259 919 333 887 300 919 b 186 846 219 919 186 887 b 259 773 186 806 219 773 z "},"÷":{"ha":789,"x_min":0,"x_max":0,"o":"m 742 278 l 742 417 l 47 417 l 47 278 z m 394 556 b 464 625 433 556 464 587 b 394 694 464 663 433 694 b 325 625 356 694 325 663 b 394 556 325 587 356 556 z m 394 0 b 464 69 433 0 464 31 b 394 139 464 108 433 139 b 325 69 356 139 325 108 b 394 0 325 31 356 0 z "},"ø":{"ha":800,"x_min":0,"x_max":0,"o":"m 331 694 l 53 417 l 53 0 l 469 0 l 747 278 l 747 694 z m 192 417 b 231 514 192 454 205 487 b 331 556 258 542 291 556 l 497 556 l 192 174 z m 608 278 b 567 178 608 239 595 205 b 469 139 540 152 507 139 l 303 139 l 608 521 l 608 278 z "},"ù":{"ha":822,"x_min":0,"x_max":0,"o":"m 608 694 l 608 139 l 331 139 b 231 178 292 139 258 152 b 192 278 205 205 192 239 l 192 694 l 53 694 l 53 278 l 331 0 l 747 0 l 747 694 z m 553 778 l 553 916 l 163 916 l 289 778 z "},"ú":{"ha":822,"x_min":0,"x_max":0,"o":"m 608 694 l 608 139 l 331 139 b 231 178 292 139 258 152 b 192 278 205 205 192 239 l 192 694 l 53 694 l 53 278 l 331 0 l 747 0 l 747 694 z m 651 916 l 261 916 l 261 778 l 525 778 z "},"û":{"ha":822,"x_min":0,"x_max":0,"o":"m 608 694 l 608 139 l 331 139 b 231 178 292 139 258 152 b 192 278 205 205 192 239 l 192 694 l 53 694 l 53 278 l 331 0 l 747 0 l 747 694 z m 400 870 l 492 777 l 641 777 l 400 1018 l 159 777 l 308 777 z "},"ü":{"ha":822,"x_min":0,"x_max":0,"o":"m 608 694 l 608 139 l 331 139 b 231 178 292 139 258 152 b 192 278 205 205 192 239 l 192 694 l 53 694 l 53 278 l 331 0 l 747 0 l 747 694 z m 541 773 b 614 846 581 773 614 806 b 541 919 614 887 581 919 b 467 846 500 919 467 887 b 541 773 467 806 500 773 z m 259 773 b 333 846 300 773 333 806 b 259 919 333 887 300 919 b 186 846 219 919 186 887 b 259 773 186 806 219 773 z "},"ý":{"ha":822,"x_min":0,"x_max":0,"o":"m 608 694 l 608 139 l 331 139 b 231 178 292 139 258 152 b 192 278 205 205 192 239 l 192 694 l 53 694 l 53 278 l 331 0 l 608 0 b 567 -98 608 -38 595 -70 b 469 -139 540 -125 507 -139 l 53 -139 l 53 -278 l 469 -278 l 747 0 l 747 694 z m 595 930 l 205 930 l 205 792 l 469 792 z "},"þ":{"ha":822,"x_min":0,"x_max":0,"o":"m 492 694 l 214 694 l 214 972 l 75 972 l 75 -291 l 214 -291 l 214 139 l 353 0 l 769 0 l 769 417 l 492 694 z m 631 139 l 353 139 b 255 178 315 139 283 152 b 214 278 228 205 214 239 l 214 556 l 492 556 b 592 514 531 556 564 542 b 631 417 618 487 631 454 l 631 139 z "},"ÿ":{"ha":822,"x_min":0,"x_max":0,"o":"m 608 694 l 608 139 l 331 139 b 231 178 292 139 258 152 b 192 278 205 205 192 239 l 192 694 l 53 694 l 53 278 l 331 0 l 608 0 b 567 -98 608 -38 595 -70 b 469 -139 540 -125 507 -139 l 53 -139 l 53 -278 l 469 -278 l 747 0 l 747 694 z m 541 786 b 614 860 581 786 614 819 b 541 933 614 900 581 933 b 468 860 500 933 468 900 b 541 786 468 819 500 786 z m 259 786 b 333 860 300 786 333 819 b 259 933 333 900 300 933 b 186 860 219 933 186 900 b 259 786 186 819 219 786 z "},"ı":{"ha":289,"x_min":0,"x_max":0,"o":"m 214 2 l 214 697 l 75 697 l 75 2 z "},"Ł":{"ha":901,"x_min":0,"x_max":0,"o":"m 478 139 b 378 178 439 139 406 152 b 339 278 352 205 339 239 l 339 387 l 547 595 l 449 693 l 339 583 l 339 972 l 200 972 l 200 444 l 4 248 l 102 150 l 215 263 l 478 0 l 895 0 l 895 139 l 478 139 z "},"ł":{"ha":607,"x_min":0,"x_max":0,"o":"m 424 139 b 324 178 385 139 352 152 b 285 278 298 205 285 239 l 285 487 l 448 571 l 384 694 l 285 643 l 285 972 l 146 972 l 146 571 l 18 505 l 82 382 l 146 415 l 146 278 l 424 0 l 588 0 l 588 139 l 424 139 z "},"Œ":{"ha":1344,"x_min":0,"x_max":0,"o":"m 800 792 b 900 833 828 820 861 833 l 1317 833 l 1317 972 l 900 972 l 761 833 l 761 972 l 344 972 l 67 694 l 67 0 l 483 0 l 692 208 l 900 0 l 1317 0 l 1317 139 l 900 139 b 800 178 861 139 828 152 b 761 278 774 205 761 239 l 761 417 l 1064 417 l 1064 556 l 761 556 l 761 695 b 800 792 761 732 774 765 z m 622 694 l 622 278 b 581 178 622 239 608 205 b 483 139 553 152 521 139 l 206 139 l 206 694 b 245 792 206 732 219 765 b 344 833 272 820 305 833 l 622 833 l 622 694 z "},"œ":{"ha":1361,"x_min":0,"x_max":0,"o":"m 1303 694 l 886 694 l 747 556 l 747 694 l 331 694 l 53 417 l 53 0 l 469 0 l 678 208 l 886 0 l 1303 0 l 1303 139 l 886 139 b 786 178 847 139 814 152 b 747 278 760 205 747 239 l 1164 278 l 1303 417 z m 608 417 l 608 278 b 567 178 608 239 595 205 b 469 139 540 152 507 139 l 192 139 l 192 417 b 231 514 192 454 205 487 b 331 555 258 542 292 555 l 608 555 l 608 417 z m 1094 417 l 747 417 b 786 514 747 454 760 487 b 886 556 814 542 847 556 l 1164 556 l 1164 486 b 1142 436 1164 466 1157 449 b 1094 417 1129 423 1113 417 z "},"Š":{"ha":799,"x_min":0,"x_max":0,"o":"m 747 1282 l 599 1282 l 506 1190 l 414 1282 l 265 1282 l 506 1041 z m 192 694 b 231 794 192 733 205 767 b 331 833 258 820 291 833 l 747 833 l 747 972 l 331 972 l 53 694 l 53 417 l 608 417 l 608 278 b 569 178 608 239 595 205 b 469 139 542 152 509 139 l 53 139 l 53 0 l 469 0 l 747 278 l 747 556 l 192 556 z "},"š":{"ha":789,"x_min":0,"x_max":0,"o":"m 47 417 l 47 278 l 603 278 b 562 178 603 239 589 205 b 464 139 534 152 502 139 l 47 139 l 47 0 l 464 0 l 742 278 l 742 417 l 186 417 b 225 514 186 454 199 487 b 325 555 253 542 286 555 l 742 555 l 742 694 l 325 694 l 47 417 z m 742 1018 l 593 1018 l 501 926 l 408 1018 l 260 1018 l 501 777 z "},"Ÿ":{"ha":807,"x_min":0,"x_max":0,"o":"m 534 1038 b 607 1111 575 1038 607 1071 b 534 1185 607 1152 575 1185 b 461 1111 493 1185 461 1152 b 534 1038 461 1071 493 1038 z m 252 1038 b 326 1111 293 1038 326 1071 b 252 1185 326 1152 293 1185 b 179 1111 212 1185 179 1152 b 252 1038 179 1071 212 1038 z m 601 972 l 601 556 l 324 556 b 224 595 285 556 251 569 b 185 694 198 622 185 655 l 185 972 l 46 972 l 46 694 l 324 417 l 601 417 l 601 278 b 562 178 601 239 588 206 b 462 139 535 152 502 139 l 46 139 l 46 0 l 462 0 l 740 278 l 740 972 z "},"Ž":{"ha":765,"x_min":0,"x_max":0,"o":"m 623 1282 l 474 1282 l 382 1190 l 290 1282 l 141 1282 l 382 1041 z m 451 417 l 729 833 l 729 972 l 35 972 l 35 833 l 590 833 b 312 556 590 680 466 556 l 35 139 l 35 0 l 729 0 l 729 139 l 174 139 b 451 417 174 292 298 417 z "},"ž":{"ha":782,"x_min":0,"x_max":0,"o":"m 460 280 l 737 558 l 737 697 l 43 697 l 43 558 l 599 558 b 557 458 599 519 585 485 b 460 419 530 432 497 419 l 321 419 l 43 141 l 43 2 l 738 2 l 738 141 l 182 141 b 221 239 182 179 195 211 b 321 280 249 266 282 280 z m 631 1018 l 483 1018 l 390 926 l 298 1018 l 149 1018 l 390 777 z "},"ˆ":{"ha":318,"x_min":0,"x_max":0,"o":"m 251 1093 l 159 1000 l 67 1093 l -82 1093 l 159 852 l 400 1093 z "},"ˇ":{"ha":563,"x_min":0,"x_max":0,"o":"m 281 1093 l 40 852 l 189 852 l 281 944 l 374 852 l 522 852 z "},"˜":{"ha":589,"x_min":0,"x_max":0,"o":"m 503 1057 b 413 972 482 1007 452 972 b 334 1002 389 972 370 981 b 321 1010 332 1004 327 1007 l 301 1022 b 241 1053 277 1036 257 1046 b 189 1062 225 1059 207 1062 b 44 931 134 1062 85 1018 l 106 877 b 189 960 123 925 152 960 b 271 929 213 960 234 950 l 288 920 l 321 901 b 418 871 357 881 389 871 b 565 1006 474 871 524 916 l 502 1057 z "},"–":{"ha":797,"x_min":0,"x_max":0,"o":"m 746 278 l 746 417 l 51 417 l 51 278 z "},"—":{"ha":1589,"x_min":0,"x_max":0,"o":"m 1537 278 l 1537 417 l 51 417 l 51 278 z "},"‘":{"ha":254,"x_min":0,"x_max":0,"o":"m 157 939 b 56 708 93 880 56 796 l 194 708 l 194 972 l 157 939 z "},"’":{"ha":253,"x_min":0,"x_max":0,"o":"m 60 972 l 60 708 l 96 741 b 198 972 161 800 198 884 z "},"‚":{"ha":306,"x_min":0,"x_max":0,"o":"m 83 -8 l 83 -272 l 221 -146 l 221 -8 z "},"‛":{"ha":256,"x_min":0,"x_max":0,"o":"m 57 965 l 57 827 l 195 701 l 195 965 z "},"“":{"ha":453,"x_min":0,"x_max":0,"o":"m 356 939 b 255 708 292 880 255 796 l 393 708 l 393 972 l 356 939 z m 54 708 l 192 708 l 192 972 l 156 939 b 54 708 91 880 54 796 z "},"”":{"ha":453,"x_min":0,"x_max":0,"o":"m 60 708 l 96 741 b 198 972 161 800 198 884 l 60 972 l 60 708 z m 260 972 l 260 708 l 296 741 b 398 972 361 800 398 884 z "},"„":{"ha":506,"x_min":0,"x_max":0,"o":"m 83 -271 l 221 -145 l 221 -7 l 83 -7 z m 284 -7 l 284 -271 l 422 -145 l 422 -7 z "},"†":{"ha":743,"x_min":0,"x_max":0,"o":"m 441 691 l 441 972 l 302 972 l 302 691 l 53 691 l 53 552 l 302 552 l 302 -246 l 441 -246 l 441 552 l 690 552 l 690 691 z "},"‡":{"ha":774,"x_min":0,"x_max":0,"o":"m 705 552 l 705 691 l 456 691 l 456 972 l 317 972 l 317 691 l 68 691 l 68 552 l 317 552 l 317 139 l 68 139 l 68 1 l 317 1 l 317 -246 l 456 -246 l 456 1 l 705 1 l 705 139 l 456 139 l 456 552 z "},"•":{"ha":393,"x_min":0,"x_max":0,"o":"m 297 528 b 201 566 272 554 240 566 b 100 525 161 566 127 552 b 58 424 72 497 58 463 b 96 326 58 383 71 351 b 194 288 121 301 154 288 b 294 329 234 288 267 302 b 334 432 321 357 334 391 b 297 528 334 471 322 503 z "},"…":{"ha":642,"x_min":0,"x_max":0,"o":"m 39 3 b -35 -70 -2 3 -35 -29 b 39 -143 -35 -111 -2 -143 b 112 -70 79 -143 112 -111 b 39 3 112 -29 79 3 z m 602 3 b 529 -70 562 3 529 -29 b 602 -143 529 -111 562 -143 b 675 -70 643 -143 675 -111 b 602 3 675 -29 643 3 z m 320 3 b 247 -70 280 3 247 -29 b 320 -143 247 -111 280 -143 b 394 -70 361 -143 394 -111 b 320 3 394 -29 361 3 z "},"‰":{"ha":1708,"x_min":0,"x_max":0,"o":"m 67 0 l 248 0 l 1088 972 l 907 972 z m 796 389 l 602 195 l 602 0 l 894 0 l 1088 195 l 1088 389 z m 991 195 b 962 126 991 168 981 146 b 894 97 943 107 920 97 l 699 97 l 699 195 b 726 265 699 222 708 245 b 796 292 746 283 769 292 l 991 292 l 991 195 z m 359 583 l 553 778 l 553 972 l 261 972 l 67 778 l 67 583 z m 164 777 b 193 846 164 804 174 827 b 261 875 212 865 235 875 l 456 875 l 456 778 b 429 708 456 750 447 727 b 359 680 409 689 386 680 l 164 680 z m 1356 389 l 1161 195 l 1161 0 l 1453 0 l 1648 195 l 1648 389 z m 1551 195 b 1522 126 1551 168 1541 146 b 1453 97 1503 107 1480 97 l 1259 97 l 1259 195 b 1286 265 1259 222 1268 245 b 1356 292 1305 283 1329 292 l 1551 292 l 1551 195 z "},"‹":{"ha":824,"x_min":0,"x_max":0,"o":"m 761 515 l 715 646 l 60 415 l 60 279 l 715 49 l 761 180 l 285 347 z "},"›":{"ha":824,"x_min":0,"x_max":0,"o":"m 109 646 l 63 515 l 539 347 l 63 180 l 109 49 l 764 279 l 764 415 z "},"⁄":{"ha":1106,"x_min":0,"x_max":0,"o":"m 885 972 l 44 0 l 225 0 l 1066 972 z "},"€":{"ha":985,"x_min":0,"x_max":0,"o":"m 406 792 b 505 833 433 820 466 833 l 922 833 l 922 972 l 505 972 l 228 694 l 228 652 l 65 652 l 65 514 l 228 514 l 228 459 l 65 459 l 65 320 l 228 320 l 228 278 l 505 0 l 922 0 l 922 139 l 505 139 b 406 178 466 139 433 152 b 367 278 380 205 367 239 l 367 320 l 733 320 l 733 459 l 367 459 l 367 514 l 733 514 l 733 652 l 367 652 l 367 694 b 406 792 367 732 380 765 z "},"™":{"ha":700,"x_min":0,"x_max":0,"o":"m 50 928 l 135 928 l 135 694 l 189 694 l 189 928 l 274 928 l 274 972 l 50 972 z m 560 972 l 485 775 l 409 972 l 330 972 l 330 694 l 381 694 l 381 912 l 382 912 l 465 694 l 503 694 l 586 912 l 587 912 l 587 694 l 638 694 l 638 972 z "},"−":{"ha":797,"x_min":0,"x_max":0,"o":"m 746 278 l 746 417 l 51 417 l 51 278 z "}}}
